<svg xmlns="http://www.w3.org/2000/svg" xmlns:xlink="http://www.w3.org/1999/xlink" xmlns:ifc="http://www.ifcopenshell.org/ns" width="707mm" height="556.25mm" viewBox="0 0 707 556.25">
    <defs>
        <marker id="arrowend" markerWidth="10" markerHeight="7" refX="10" refY="3.5" orient="auto">
          <polygon points="0 0, 10 3.5, 0 7"/>
        </marker>
        <marker id="arrowstart" markerWidth="10" markerHeight="7" refX="0" refY="3.5" orient="auto">
          <polygon points="10 0, 0 3.5, 10 7"/>
        </marker>
    </defs>
    <g ifc:name="Elevation 00_BEGANE_GROND PLAN" class="section" ifc:plane="[[1.000000,0.000000,0.000000,0.000000],[0.000000,1.000000,0.000000,0.000000],[0.000000,0.000000,1.000000,1.600000],[0.000000,0.000000,0.000000,1.000000]]" ifc:matrix3="[[20.000000,0.000000,270.590730],[0.000000,20.000000,418.957188],[0.000000,0.000000,1.000000]]">
        <g id="product-cb7cc1e9-e156-4183-a023-1eaec48be80a" class="IfcWall material-null projection" ifc:name="Wall" ifc:guid="3BVC7fuLP1Ww0Z7gx4Y_WA">
            <path d="M314.591,371.789 L404.831,371.789"/>
            <path d="M404.831,371.789 L404.831,369.789"/>
            <path d="M314.591,369.789 L404.831,369.789"/>
            <path d="M314.591,371.789 L314.591,369.789"/>
        </g>
    <g id="product-5f763cfc-941b-4d15-b94b-6012d7ee661d" class="IfcWall material-null projection" ifc:name="Wall" ifc:guid="1VTZpyb1jD5RbBO1BNxcOT">
            <path d="M356.473,213.789 L356.473,217.789"/>
            <path d="M356.473,217.789 L404.831,217.789"/>
            <path d="M404.831,217.789 L404.831,213.789"/>
            <path d="M356.473,213.789 L404.831,213.789"/>
        </g>
        <g id="product-7d56aef1-1f1d-445a-a997-ee7ab1e61a8e" class="IfcWall material-null projection" ifc:name="Wall" ifc:guid="1zLgxn7nr4MgcNxdgnvXgE">
            <path d="M341.25,292.056 L341.25,295.44"/>
            <path d="M341.25,292.056 L339.25,292.056"/>
            <path d="M339.25,295.44 L339.25,292.056"/>
            <path d="M341.25,295.44 L339.25,295.44"/>
        </g>
        <g id="product-8ccf6ad0-16e2-4548-b243-82ef04669138" class="IfcWall material-null projection" ifc:name="Wall" ifc:guid="2CpshG5k95IB93Wky4Pf4u">
            <path d="M316.591,256.973 L316.591,258.973"/>
            <path d="M341.25,258.973 L316.591,258.973"/>
            <path d="M341.25,256.973 L341.25,258.973"/>
            <path d="M341.25,256.973 L316.591,256.973"/>
        </g>
        <g id="product-8c4457fe-a120-4cfb-bf85-5d8cd1195906" class="IfcWall material-null projection" ifc:name="Wall" ifc:guid="2CH5V_eI1C_x_5NOpH6La6">
            <path d="M339.25,234.569 L339.25,256.973"/>
            <path d="M339.25,256.973 L341.25,256.973"/>
            <path d="M341.25,234.569 L341.25,256.973"/>
            <path d="M339.25,234.569 L341.25,234.569"/>
            <path d="M341.25,216.793 L341.25,219.969"/>
            <path d="M339.25,216.793 L341.25,216.793"/>
            <path d="M339.25,216.793 L339.25,219.969"/>
            <path d="M341.25,219.969 L339.25,219.969"/>
        </g>
        <g id="product-5336d5f8-d24a-4d13-b8b0-7254322af3cc" class="IfcWall material-null projection" ifc:name="Wall" ifc:guid="1JDjNuqafD4xYmSbGoAlFC">
            <path d="M363.814,213.789 L363.814,174.763"/>
            <path d="M365.814,213.789 L363.814,213.789"/>
            <path d="M365.814,174.763 L365.814,213.789"/>
            <path d="M363.814,174.763 L365.814,174.763"/>
        </g>
        <g id="product-dc6a2a24-dc3b-4ff2-8eec-e1f61e289399" class="IfcWall material-null projection" ifc:name="Wall" ifc:guid="3SQYeat3jFyexiuVOUA9EP">
            <path d="M334.875,333.789 L334.875,335.789"/>
            <path d="M334.875,335.789 L340.831,335.789"/>
            <path d="M340.831,335.789 L340.831,333.789"/>
            <path d="M334.875,333.789 L340.831,333.789"/>
            <path d="M320.275,335.789 L320.275,333.789"/>
            <path d="M316.591,333.789 L320.275,333.789"/>
            <path d="M316.591,335.789 L316.591,333.789"/>
            <path d="M316.591,335.789 L320.275,335.789"/>
        </g>
        <g id="product-f6575f48-666b-42eb-96b8-072a7f79e07b" class="IfcWall material-null projection" ifc:name="Wall" ifc:guid="3sLrz8Pcj2wvQu1of$UU1x">
            <path d="M338.831,353.789 L340.831,353.789"/>
            <path d="M340.831,335.789 L340.831,353.789"/>
            <path d="M338.831,335.789 L340.831,335.789"/>
            <path d="M338.831,335.789 L338.831,353.789"/>
        </g>
        <g id="product-2cc8673f-6f50-4693-a464-8933adebb8f3" class="IfcWall material-null projection" ifc:name="Wall" ifc:guid="0io6S$Rr16awHaYJEjwxZp">
            <path d="M342.831,355.789 L342.831,353.789"/>
            <path d="M338.831,353.789 L342.831,353.789"/>
            <path d="M338.831,355.789 L338.831,353.789"/>
            <path d="M338.831,355.789 L342.831,355.789"/>
        </g>
        <g id="product-35599750-3887-43d9-9646-2f2173310777" class="IfcWall material-null projection" ifc:name="Wall" ifc:guid="0rMPTGE8T3sPP6Bo5pCGTt">
            <path d="M342.831,369.789 L344.831,369.789"/>
            <path d="M344.831,353.789 L344.831,369.789"/>
            <path d="M342.831,353.789 L344.831,353.789"/>
            <path d="M342.831,353.789 L342.831,369.789"/>
        </g>
        <g id="product-7ad75127-3898-4965-bd4b-aade9931964a" class="IfcWall material-null projection" ifc:name="Wall" ifc:guid="1wrr4dE9X9PRrBgjwPCPPA">
            <path d="M363.814,176.763 L316.591,176.763"/>
            <path d="M363.814,174.763 L363.814,176.763"/>
            <path d="M316.591,174.763 L363.814,174.763"/>
            <path d="M316.591,176.763 L316.591,174.763"/>
        </g>
        <g id="product-c8bd4339-a881-42a6-a7af-af57400b07fa" class="IfcWall material-null projection" ifc:name="Wall" ifc:guid="38lKCvg852fgUlhrT02mVw">
            <path d="M402.569,292.075 L402.569,298.075"/>
            <path d="M398.569,292.075 L402.569,292.075"/>
            <path d="M398.569,298.075 L398.569,292.075"/>
            <path d="M402.569,298.075 L398.569,298.075"/>
        </g>
        <g id="product-d018660e-bcec-48fd-92b8-4bebcee1fddf" class="IfcWall material-null projection" ifc:name="Wall" ifc:guid="3G66OElEn8$PAuI_lEuVtV">
            <path d="M341.25,297.44 L316.591,297.44"/>
            <path d="M341.25,295.44 L341.25,297.44"/>
            <path d="M316.591,295.44 L341.25,295.44"/>
            <path d="M316.591,297.44 L316.591,295.44"/>
        </g>
        <g id="product-1c02367d-28b2-49bb-90e8-9b10feb327bb" class="IfcWall material-null projection" ifc:name="Wall" ifc:guid="0S0ZPzAB99kv3ecn3_ioUx">
            <path d="M339.25,218.793 L316.591,218.793"/>
            <path d="M339.25,216.793 L339.25,218.793"/>
            <path d="M316.591,216.793 L339.25,216.793"/>
            <path d="M316.591,218.793 L316.591,216.793"/>
        </g>
        <g id="product-5809d239-5784-471f-a0db-d9d5c7c8e5a5" class="IfcSlab material-null projection" ifc:name="Slab" ifc:guid="1O2T8vLuH77w3RsTN7oEMb">
            <path d="M314.591,369.789 L325.931,369.789"/>
            <path d="M339.531,369.789 L340.031,369.789"/>
            <path d="M340.531,369.789 L342.831,369.789"/>
            <path d="M344.831,369.789 L404.831,369.789"/>
            <path d="M314.591,174.763 L314.591,369.789"/>
            <path d="M365.814,174.763 L314.591,174.763"/>
            <path d="M365.814,213.789 L365.814,174.763"/>
            <path d="M365.814,174.763 L365.814,174.763"/>
            <path d="M404.831,369.789 L404.831,213.789"/>
        </g>
        <g id="product-f4c520a0-bb17-45fb-b5c8-3363b118f50e" class="IfcDoor material-null projection" ifc:name="Door" ifc:guid="3qnI2WknT5_xN8CsEn6FKE">
            <path d="M354.15,273.867 L340.55,273.867"/>
            <path d="M354.15,273.167 L354.15,273.867"/>
            <path d="M340.55,273.167 L354.15,273.167"/>
            <path d="M340.55,273.867 L340.55,273.167"/>
            <path d="M339.55,273.367 L339.55,274.367"/>
            <path d="M340.05,273.367 L339.55,273.367"/>
            <path d="M340.05,273.867 L340.05,273.367"/>
            <path d="M340.55,273.867 L340.05,273.867"/>
            <path d="M340.55,274.367 L340.55,273.867"/>
            <path d="M339.55,274.367 L340.55,274.367"/>
            <path d="M339.55,260.767 L339.55,259.767"/>
            <path d="M340.05,260.767 L339.55,260.767"/>
            <path d="M340.05,260.267 L340.05,260.767"/>
            <path d="M340.55,260.267 L340.05,260.267"/>
            <path d="M340.55,259.767 L340.55,260.267"/>
            <path d="M339.55,259.767 L340.55,259.767"/>
            <path d="M343.203,260.515 L340.55,260.267"/>
            <path d="M345.754,261.249 L343.203,260.515"/>
            <path d="M348.544,262.731 L345.754,261.249"/>
            <path d="M350.891,264.789 L348.544,262.731"/>
            <path d="M352.667,267.31 L350.891,264.789"/>
            <path d="M353.774,270.155 L352.667,267.31"/>
            <path d="M354.15,273.167 L353.774,270.155"/>
        </g>
        <g id="product-d6fd7e94-42f1-414c-8419-7f0516f2175a" class="IfcDoor material-null projection" ifc:name="Door" ifc:guid="3M$NwKGl51J8GPVmKMyXTQ">
            <path d="M354.15,291.556 L340.55,291.556"/>
            <path d="M354.15,290.856 L354.15,291.556"/>
            <path d="M340.55,290.856 L354.15,290.856"/>
            <path d="M340.55,291.556 L340.55,290.856"/>
            <path d="M339.55,291.056 L339.55,292.056"/>
            <path d="M340.05,291.056 L339.55,291.056"/>
            <path d="M340.05,291.556 L340.05,291.056"/>
            <path d="M340.55,291.556 L340.05,291.556"/>
            <path d="M340.55,292.056 L340.55,291.556"/>
            <path d="M339.55,278.456 L339.55,277.456"/>
            <path d="M340.05,278.456 L339.55,278.456"/>
            <path d="M340.05,277.956 L340.05,278.456"/>
            <path d="M340.55,277.956 L340.05,277.956"/>
            <path d="M340.55,277.456 L340.55,277.956"/>
            <path d="M339.55,277.456 L340.55,277.456"/>
            <path d="M343.203,278.204 L340.55,277.956"/>
            <path d="M345.754,278.938 L343.203,278.204"/>
            <path d="M348.544,280.419 L345.754,278.938"/>
            <path d="M350.891,282.478 L348.544,280.419"/>
            <path d="M352.667,284.999 L350.891,282.478"/>
            <path d="M353.774,287.844 L352.667,284.999"/>
            <path d="M354.15,290.856 L353.774,287.844"/>
        </g>
        <g id="product-76ef8e95-ba71-4d59-99ac-5d209dda4064" class="IfcDoor material-null projection" ifc:name="Door" ifc:guid="1sxuwLkd5DMPciNI2Tsa1a">
            <path d="M325.931,369.189 L325.931,369.789"/>
            <path d="M339.531,369.189 L325.931,369.189"/>
            <path d="M339.531,369.789 L339.531,369.189"/>
            <path d="M340.531,356.789 L340.531,355.789"/>
            <path d="M340.031,356.789 L340.531,356.789"/>
            <path d="M340.031,356.289 L340.031,356.789"/>
            <path d="M339.531,356.289 L340.031,356.289"/>
            <path d="M339.531,355.789 L339.531,356.289"/>
            <path d="M340.531,369.389 L340.531,369.789"/>
            <path d="M340.031,369.389 L340.531,369.389"/>
            <path d="M340.031,369.789 L340.031,369.389"/>
            <path d="M326.017,367.74 L325.931,369.189"/>
            <path d="M326.274,366.309 L326.017,367.74"/>
            <path d="M327.21,363.727 L326.274,366.309"/>
            <path d="M328.698,361.39 L327.21,363.727"/>
            <path d="M330.671,359.402 L328.698,361.39"/>
            <path d="M333.042,357.853 L330.671,359.402"/>
            <path d="M336.011,356.729 L333.042,357.853"/>
            <path d="M339.531,356.289 L336.011,356.729"/>
        </g>
        <g id="product-603b632d-bc15-4435-8d62-659d7b8026d9" class="IfcDoor material-null projection" ifc:name="Door" ifc:guid="1WEsCjl1L4DOrYPPrxW2RP">
            <path d="M320.775,320.889 L320.775,334.489"/>
            <path d="M321.475,320.889 L320.775,320.889"/>
            <path d="M321.475,334.489 L321.475,320.889"/>
            <path d="M320.775,334.489 L321.475,334.489"/>
            <path d="M333.875,335.489 L334.875,335.489"/>
            <path d="M333.875,334.989 L333.875,335.489"/>
            <path d="M334.375,334.989 L333.875,334.989"/>
            <path d="M334.375,334.489 L334.375,334.989"/>
            <path d="M334.875,334.489 L334.375,334.489"/>
            <path d="M321.275,335.489 L320.275,335.489"/>
            <path d="M321.275,334.989 L321.275,335.489"/>
            <path d="M320.775,334.989 L321.275,334.989"/>
            <path d="M320.775,334.489 L320.775,334.989"/>
            <path d="M320.275,334.489 L320.775,334.489"/>
            <path d="M322.924,320.975 L321.475,320.889"/>
            <path d="M324.355,321.233 L322.924,320.975"/>
            <path d="M326.937,322.169 L324.355,321.233"/>
            <path d="M329.274,323.657 L326.937,322.169"/>
            <path d="M331.262,325.63 L329.274,323.657"/>
            <path d="M332.812,328 L331.262,325.63"/>
            <path d="M333.935,330.969 L332.812,328"/>
            <path d="M334.375,334.489 L333.935,330.969"/>
        </g>
        <g id="product-8d72b151-df48-4e6a-b435-bad487f16161" class="IfcDoor material-null projection" ifc:name="Door" ifc:guid="2DSh5HtqXEQhGrkjI7yM5X">
            <path d="M353.85,220.469 L340.25,220.469"/>
            <path d="M353.85,221.169 L353.85,220.469"/>
            <path d="M340.25,221.169 L353.85,221.169"/>
            <path d="M340.25,220.469 L340.25,221.169"/>
            <path d="M339.25,233.569 L339.25,234.569"/>
            <path d="M339.75,233.569 L339.25,233.569"/>
            <path d="M339.75,234.069 L339.75,233.569"/>
            <path d="M340.25,234.069 L339.75,234.069"/>
            <path d="M340.25,234.569 L340.25,234.069"/>
            <path d="M339.25,220.969 L339.25,219.969"/>
            <path d="M339.75,220.969 L339.25,220.969"/>
            <path d="M339.75,220.469 L339.75,220.969"/>
            <path d="M340.25,220.469 L339.75,220.469"/>
            <path d="M340.25,219.969 L340.25,220.469"/>
            <path d="M353.764,222.618 L353.85,221.169"/>
            <path d="M353.506,224.049 L353.764,222.618"/>
            <path d="M352.57,226.631 L353.506,224.049"/>
            <path d="M351.082,228.969 L352.57,226.631"/>
            <path d="M349.109,230.956 L351.082,228.969"/>
            <path d="M346.739,232.506 L349.109,230.956"/>
            <path d="M343.77,233.63 L346.739,232.506"/>
            <path d="M340.25,234.069 L343.77,233.63"/>
        </g>
        <g id="product-cb7cc1e9-e156-4183-a023-1eaec48be80a-body" class="IfcWall material-null cut" ifc:name="Wall" ifc:guid="3BVC7fuLP1Ww0Z7gx4Y_WA">
            <path d="M314.591,371.789 L314.591,369.789 L404.831,369.789 L404.831,371.789 L314.591,371.789"/>
        </g>
        <g class="0rMPTGE8T3sPP6Bo5pCGTt 1wrr4dE9X9PRrBgjwPCPPA 0io6S$Rr16awHaYJEjwxZp 2CH5V_eI1C_x_5NOpH6La6 1VTZpyb1jD5RbBO1BNxcOT 3G66OElEn8$PAuI_lEuVtV 3sLrz8Pcj2wvQu1of$UU1x 1zLgxn7nr4MgcNxdgnvXgE IfcWall 38lKCvg852fgUlhrT02mVw 1JDjNuqafD4xYmSbGoAlFC material-null 0S0ZPzAB99kv3ecn3_ioUx cut 2CpshG5k95IB93Wky4Pf4u 3SQYeat3jFyexiuVOUA9EP"><path d="M316.591,174.763 L316.591,176.763 L363.814,176.763 L363.814,213.789 L356.473,213.789 L356.473,217.789 L404.831,217.789 L404.831,213.789 L365.814,213.789 L365.814,174.763 L363.814,174.763 Z"/></g><g class="0rMPTGE8T3sPP6Bo5pCGTt 1wrr4dE9X9PRrBgjwPCPPA 0io6S$Rr16awHaYJEjwxZp 2CH5V_eI1C_x_5NOpH6La6 1VTZpyb1jD5RbBO1BNxcOT 3G66OElEn8$PAuI_lEuVtV 3sLrz8Pcj2wvQu1of$UU1x 1zLgxn7nr4MgcNxdgnvXgE IfcWall 38lKCvg852fgUlhrT02mVw 1JDjNuqafD4xYmSbGoAlFC material-null 0S0ZPzAB99kv3ecn3_ioUx cut 2CpshG5k95IB93Wky4Pf4u 3SQYeat3jFyexiuVOUA9EP"><path d="M339.25,219.969 L341.25,219.969 L341.25,216.793 L339.25,216.793 L316.591,216.793 L316.591,218.793 L339.25,218.793 Z"/></g><g class="0rMPTGE8T3sPP6Bo5pCGTt 1wrr4dE9X9PRrBgjwPCPPA 0io6S$Rr16awHaYJEjwxZp 2CH5V_eI1C_x_5NOpH6La6 1VTZpyb1jD5RbBO1BNxcOT 3G66OElEn8$PAuI_lEuVtV 3sLrz8Pcj2wvQu1of$UU1x 1zLgxn7nr4MgcNxdgnvXgE IfcWall 38lKCvg852fgUlhrT02mVw 1JDjNuqafD4xYmSbGoAlFC material-null 0S0ZPzAB99kv3ecn3_ioUx cut 2CpshG5k95IB93Wky4Pf4u 3SQYeat3jFyexiuVOUA9EP"><path d="M316.591,256.973 L316.591,258.973 L341.25,258.973 L341.25,256.973 L341.25,234.569 L339.25,234.569 L339.25,256.973 Z"/></g><g class="0rMPTGE8T3sPP6Bo5pCGTt 1wrr4dE9X9PRrBgjwPCPPA 0io6S$Rr16awHaYJEjwxZp 2CH5V_eI1C_x_5NOpH6La6 1VTZpyb1jD5RbBO1BNxcOT 3G66OElEn8$PAuI_lEuVtV 3sLrz8Pcj2wvQu1of$UU1x 1zLgxn7nr4MgcNxdgnvXgE IfcWall 38lKCvg852fgUlhrT02mVw 1JDjNuqafD4xYmSbGoAlFC material-null 0S0ZPzAB99kv3ecn3_ioUx cut 2CpshG5k95IB93Wky4Pf4u 3SQYeat3jFyexiuVOUA9EP"><path d="M316.591,297.44 L341.25,297.44 L341.25,295.44 L341.25,292.056 L339.25,292.056 L339.25,295.44 L316.591,295.44 Z"/></g><g class="0rMPTGE8T3sPP6Bo5pCGTt 1wrr4dE9X9PRrBgjwPCPPA 0io6S$Rr16awHaYJEjwxZp 2CH5V_eI1C_x_5NOpH6La6 1VTZpyb1jD5RbBO1BNxcOT 3G66OElEn8$PAuI_lEuVtV 3sLrz8Pcj2wvQu1of$UU1x 1zLgxn7nr4MgcNxdgnvXgE IfcWall 38lKCvg852fgUlhrT02mVw 1JDjNuqafD4xYmSbGoAlFC material-null 0S0ZPzAB99kv3ecn3_ioUx cut 2CpshG5k95IB93Wky4Pf4u 3SQYeat3jFyexiuVOUA9EP"><path d="M320.275,335.789 L320.275,333.789 L316.591,333.789 L316.591,335.789 Z"/></g><g class="0rMPTGE8T3sPP6Bo5pCGTt 1wrr4dE9X9PRrBgjwPCPPA 0io6S$Rr16awHaYJEjwxZp 2CH5V_eI1C_x_5NOpH6La6 1VTZpyb1jD5RbBO1BNxcOT 3G66OElEn8$PAuI_lEuVtV 3sLrz8Pcj2wvQu1of$UU1x 1zLgxn7nr4MgcNxdgnvXgE IfcWall 38lKCvg852fgUlhrT02mVw 1JDjNuqafD4xYmSbGoAlFC material-null 0S0ZPzAB99kv3ecn3_ioUx cut 2CpshG5k95IB93Wky4Pf4u 3SQYeat3jFyexiuVOUA9EP"><path d="M334.875,333.789 L334.875,335.789 L338.831,335.789 L338.831,353.789 L338.831,355.789 L342.831,355.789 L342.831,369.789 L344.831,369.789 L344.831,353.789 L342.831,353.789 L340.831,353.789 L340.831,335.789 L340.831,333.789 Z"/></g><g class="0rMPTGE8T3sPP6Bo5pCGTt 1wrr4dE9X9PRrBgjwPCPPA 0io6S$Rr16awHaYJEjwxZp 2CH5V_eI1C_x_5NOpH6La6 1VTZpyb1jD5RbBO1BNxcOT 3G66OElEn8$PAuI_lEuVtV 3sLrz8Pcj2wvQu1of$UU1x 1zLgxn7nr4MgcNxdgnvXgE IfcWall 38lKCvg852fgUlhrT02mVw 1JDjNuqafD4xYmSbGoAlFC material-null 0S0ZPzAB99kv3ecn3_ioUx cut 2CpshG5k95IB93Wky4Pf4u 3SQYeat3jFyexiuVOUA9EP"><path d="M402.569,298.075 L402.569,292.075 L398.569,292.075 L398.569,298.075 Z"/></g></g>
</svg>